<svg width="43" height="43" viewBox="0 0 43 43" fill="none" xmlns="http://www.w3.org/2000/svg">
<path d="M23.4545 18.5635L12.7261 29.2919" stroke="white" stroke-width="3" stroke-linecap="round" stroke-linejoin="round"/>
<path d="M30.1264 23.1241C31.0227 21.8131 31.5057 20.2636 31.5129 18.6755C31.512 14.1634 27.8544 10.5058 23.3423 10.5049C21.753 10.5101 20.2017 10.9912 18.8884 11.8862" stroke="white" stroke-width="3" stroke-linecap="round" stroke-linejoin="round"/>
<path d="M18.0901 31.5134C15.021 31.5134 12.2542 29.6646 11.0798 26.829C9.90551 23.9935 10.555 20.7298 12.7254 18.5599C14.8958 16.3899 18.1597 15.7412 20.995 16.9162C23.8302 18.0912 25.6784 20.8584 25.6777 23.9275C25.6777 25.9397 24.8783 27.8695 23.4553 29.2922C22.0322 30.7149 20.1023 31.5139 18.0901 31.5134" stroke="white" stroke-width="3" stroke-linecap="round" stroke-linejoin="round"/>
<rect x="5.2522" y="5.25195" width="31.5131" height="31.5131" rx="5" stroke="white" stroke-width="3" stroke-linecap="round" stroke-linejoin="round"/>
</svg>
