<svg width="165" height="47" viewBox="0 0 165 47" fill="none" xmlns="http://www.w3.org/2000/svg">
<g clip-path="url(#clip0_1266_427)">
<path d="M50.2599 45H49.4609V39.1883H49.4313L46.8568 45H45.9395V37.7498H46.7384V43.5615H46.768L49.3425 37.7498H50.2599V45Z" fill="#6D6C6C"/>
<path d="M55.9415 43.0436C55.9415 43.7053 55.7639 44.1944 55.3792 44.5109C54.9945 44.8274 54.521 45 53.9588 45H51.6506V37.7498H53.8108C55.1721 37.7498 55.8231 38.2965 55.8231 39.3897C55.8231 39.8788 55.7343 40.2816 55.5568 40.5981C55.3792 40.9146 55.0537 41.0872 54.6098 41.1735V41.2023C55.1129 41.2886 55.4384 41.4612 55.6455 41.7777C55.8527 42.0942 55.9415 42.5257 55.9415 43.0436ZM55.0241 39.5336C55.0241 39.2747 54.9945 39.0733 54.9057 38.9294C54.8466 38.7856 54.7282 38.6705 54.5802 38.6129C54.4323 38.5554 54.3139 38.4979 54.1659 38.4691C54.0476 38.4403 53.87 38.4403 53.6925 38.4403H52.42V40.857H53.4261C53.9884 40.857 54.4027 40.7707 54.6394 40.5693C54.9057 40.3679 55.0241 40.0227 55.0241 39.5336ZM55.1129 42.9861C55.1129 42.4394 54.9945 42.0654 54.7578 41.864C54.521 41.6626 54.0772 41.5475 53.4557 41.5475H52.4496V44.3095H53.8108C54.669 44.3095 55.1129 43.878 55.1129 42.9861Z" fill="#6D6C6C"/>
<path d="M61.6232 42.0942C61.6232 43.1299 61.4456 43.9067 61.0905 44.4246C60.7354 44.9425 60.1436 45.2014 59.2558 45.2014C58.4272 45.2014 57.8354 44.9425 57.5099 44.4246C57.1844 43.9067 57.0068 43.1587 57.0068 42.1805V40.7419C57.0068 39.735 57.1844 38.9582 57.5395 38.4115C57.8946 37.8649 58.4864 37.606 59.3742 37.606C59.8477 37.606 60.2323 37.6635 60.5283 37.8361C60.8242 37.98 61.0609 38.1814 61.2089 38.4691C61.3568 38.7568 61.4752 39.0733 61.5344 39.4185C61.5936 39.7637 61.6232 40.1665 61.6232 40.6556V42.0942ZM60.8242 41.7489V40.7419C60.8242 40.3967 60.7946 40.0802 60.765 39.8213C60.7354 39.5624 60.6762 39.3034 60.5875 39.0445C60.4987 38.7856 60.3507 38.5842 60.1436 38.4691C59.9364 38.3252 59.6997 38.2677 59.3742 38.2677C59.0487 38.2677 58.7528 38.3252 58.5456 38.4978C58.3385 38.6417 58.1609 38.8431 58.0721 39.1308C57.9834 39.4185 57.8946 39.6774 57.865 39.9651C57.8354 40.2241 57.8058 40.5693 57.8058 40.9721V41.864C57.8058 42.1805 57.8058 42.4394 57.8058 42.6408C57.8058 42.8422 57.8354 43.0724 57.8946 43.3313C57.9538 43.5902 58.0426 43.7916 58.1313 43.9643C58.2497 44.1081 58.3977 44.252 58.6048 44.367C58.8119 44.4821 59.0487 44.5397 59.3446 44.5397C59.5813 44.5397 59.7885 44.5109 59.966 44.4246C60.1436 44.3383 60.2619 44.2232 60.3803 44.0793C60.4691 43.9355 60.5579 43.7629 60.617 43.619C60.6762 43.4752 60.7354 43.2738 60.7354 43.0148C60.765 42.7559 60.765 42.5545 60.7946 42.4106C60.7946 42.238 60.8242 42.0366 60.8242 41.7489Z" fill="#6D6C6C"/>
<path d="M66.713 42.8997C66.713 44.4534 66.0916 45.2014 64.8191 45.2014C63.3691 45.2014 62.6589 44.2232 62.6589 42.2668V41.0297C62.6589 40.6844 62.6589 40.3967 62.6885 40.1378C62.7181 39.9076 62.7477 39.6199 62.7773 39.3322C62.8365 39.0445 62.8957 38.8143 63.014 38.6129C63.1028 38.4403 63.2508 38.2389 63.3987 38.0951C63.5467 37.9224 63.7538 37.8073 63.9906 37.721C64.2273 37.6347 64.5232 37.606 64.8487 37.606C65.4997 37.606 66.0028 37.7786 66.2691 38.1526C66.5355 38.5266 66.713 39.0733 66.713 39.8213H65.914C65.914 38.7856 65.5589 38.2964 64.8191 38.2964C64.5824 38.2964 64.3753 38.354 64.2273 38.4403C64.0793 38.5266 63.9314 38.6705 63.8426 38.8143C63.7538 38.9582 63.6651 39.1883 63.6355 39.476C63.5763 39.7637 63.5467 40.0515 63.5467 40.3392C63.5467 40.6269 63.5171 41.0009 63.5171 41.49C63.5171 41.8928 63.5171 42.238 63.5467 42.497C63.5467 42.7559 63.5763 43.0148 63.6355 43.3025C63.6946 43.5902 63.7538 43.7916 63.8426 43.9355C63.9314 44.0793 64.0497 44.2232 64.2273 44.3095C64.3753 44.4246 64.5824 44.4533 64.8191 44.4533C65.5589 44.4533 65.9436 43.9067 65.9436 42.871H66.713V42.8997Z" fill="#6D6C6C"/>
<path d="M72.2169 45H71.4179V39.1883H71.3883L68.8138 45H67.8965V37.7498H68.6955V43.5615H68.7251L71.2995 37.7498H72.2169V45Z" fill="#6D6C6C"/>
<path d="M78.8456 46.755H78.0466V45.0288H73.8742V46.755H73.0752V44.3095H73.5783C73.8446 43.9355 74.0517 43.5327 74.2293 43.0724C74.3772 42.612 74.4956 42.0654 74.5548 41.4324C74.614 40.7995 74.6436 40.3104 74.6732 39.9364C74.6732 39.5624 74.7027 39.0157 74.7027 38.2965C74.7027 38.1238 74.7027 37.98 74.7027 37.8649V37.7498H78.2538V44.3095H78.8456V46.755ZM77.4548 44.3095V38.4403H75.4425V38.5842C75.4425 41.5188 75.0874 43.4176 74.4068 44.3095H77.4548Z" fill="#6D6C6C"/>
<path d="M84.2609 42.8134C84.2609 43.5615 84.0833 44.1369 83.6986 44.5684C83.3139 45 82.7813 45.2014 82.0119 45.2014C81.5976 45.2014 81.2425 45.1438 80.9466 45C80.6507 44.8561 80.4139 44.6835 80.2364 44.4821C80.0588 44.2807 79.9405 43.993 79.8517 43.619C79.7629 43.245 79.7037 42.8997 79.6741 42.5545C79.6445 42.2093 79.6445 41.8065 79.6445 41.2886C79.6445 40.857 79.6741 40.483 79.7037 40.1378C79.7333 39.7925 79.8221 39.476 79.9109 39.1308C80.0292 38.8143 80.1476 38.5266 80.3251 38.3252C80.5027 38.0951 80.7098 37.9512 81.0058 37.8074C81.3017 37.6635 81.6272 37.606 82.0119 37.606C82.87 37.606 83.4619 37.8937 83.7874 38.4115C84.0833 38.9582 84.2609 39.735 84.2609 40.7132V41.5188H80.5027V41.9791C80.5027 42.3243 80.5323 42.612 80.5619 42.871C80.5915 43.1299 80.6507 43.3888 80.769 43.6478C80.8578 43.9067 81.0353 44.1081 81.2425 44.252C81.4496 44.3958 81.716 44.4533 82.0415 44.4533C82.5149 44.4533 82.87 44.3095 83.1068 43.993C83.3435 43.7053 83.4619 43.2738 83.4619 42.7847H84.2609V42.8134ZM83.4619 40.857C83.4619 40.5981 83.4619 40.3967 83.4619 40.2529C83.4619 40.109 83.4323 39.9076 83.4027 39.6774C83.3731 39.4473 83.3435 39.2459 83.2547 39.102C83.166 38.9582 83.1068 38.8143 83.018 38.6705C82.9292 38.5266 82.7813 38.4115 82.6037 38.354C82.4262 38.2965 82.219 38.2389 82.0119 38.2389C81.0353 38.2389 80.5323 38.9869 80.5323 40.4542V40.8283H83.4619V40.857Z" fill="#6D6C6C"/>
<path d="M89.7649 45H88.9659V41.5475H86.3026V45H85.5037V37.7498H86.3026V40.857H88.9659V37.7498H89.7649V45Z" fill="#6D6C6C"/>
<path d="M95.5057 45H94.7067V39.1883H94.6771L92.1027 45H91.1853V37.7498H91.9843V43.5615H92.0139L94.5884 37.7498H95.5057V45Z" fill="#6D6C6C"/>
<path d="M101.335 42.2092C101.335 43.2162 101.128 43.9642 100.714 44.4533C100.3 44.9424 99.7669 45.1726 99.0567 45.1726C98.3465 45.1726 97.7842 44.9424 97.37 44.5109C96.9557 44.0793 96.7485 43.2737 96.7485 42.1517V40.2816C96.7485 39.0157 96.8373 38.0375 96.9853 37.4045C97.1628 36.7428 97.3996 36.2825 97.6955 35.9948C98.021 35.7071 98.4944 35.5057 99.1751 35.3331C99.7669 35.1892 100.122 35.0454 100.27 34.9303C100.359 34.844 100.388 34.7577 100.418 34.6426H101.246C101.246 34.844 101.217 35.0166 101.128 35.1604C101.039 35.3043 100.951 35.4481 100.832 35.5345C100.714 35.6208 100.566 35.7071 100.359 35.7934C100.152 35.8797 99.974 35.9372 99.8261 35.966C99.6781 35.9948 99.5006 36.0523 99.2342 36.1099C98.5536 36.2537 98.1098 36.5414 97.8434 36.973C97.6067 37.3758 97.4291 38.0663 97.3404 39.0445H97.37C97.7251 38.2389 98.3169 37.8361 99.2047 37.8361C99.6189 37.8361 100.004 37.9224 100.3 38.1238C100.595 38.2964 100.803 38.5554 100.951 38.8431C101.069 39.1308 101.158 39.4185 101.217 39.7062C101.276 39.9651 101.276 40.2528 101.276 40.5405V42.2092H101.335ZM100.536 41.231C100.536 40.1378 100.418 39.4185 100.181 39.0445C99.9444 38.6705 99.5894 38.4978 99.1159 38.4978C98.0802 38.4978 97.5475 39.4185 97.5475 41.231C97.5475 42.4969 97.6659 43.3313 97.873 43.7916C98.0802 44.2232 98.4945 44.4533 99.0863 44.4533C99.6485 44.4533 100.033 44.2232 100.24 43.7916C100.418 43.3313 100.536 42.4969 100.536 41.231Z" fill="#6D6C6C"/>
<path d="M49.0467 14.5895H44.312L44.9334 11.2521H58.2498L57.6579 14.5895H53.012L50.6447 27.6801H46.6794L49.0467 14.5895Z" fill="#592481"/>
<path d="M60.2029 11.2521H64.109L62.1559 22.0699H62.2447L70.708 11.2521H74.8804L71.8917 27.6801H67.9855L69.909 17.1213H69.8498L61.4457 27.6801H57.2141L60.2029 11.2521Z" fill="#592481"/>
<path d="M77.5139 11.2521H89.0547L88.4924 14.4744H80.9169L80.3547 17.5817H82.4557C86.3914 17.5817 88.5812 19.2791 88.5812 22.0699C88.5812 25.9827 85.6516 27.6514 81.1537 27.6514H74.5547L77.5139 11.2521ZM81.2129 24.5154C83.2251 24.5154 84.4975 23.9687 84.4975 22.4151C84.4975 21.0629 83.4618 20.6601 81.8935 20.6601H79.7924L79.0822 24.5154H81.2129Z" fill="#592481"/>
<path d="M90.1201 20.9766C90.1201 15.3088 94.4405 10.8206 100.181 10.8206C102.845 10.8206 105.123 11.8563 106.188 13.2661L103.259 15.8266C102.726 15.0498 101.631 14.3018 100.063 14.3018C96.6895 14.3018 94.3813 17.3227 94.3813 20.545C94.3813 22.7891 95.8313 24.6592 98.5242 24.6592C100.004 24.6592 101.395 23.9975 102.43 22.8754L104.65 25.436C103.318 26.8745 101.128 28.1692 97.9028 28.1692C93.1385 28.1117 90.1201 25.2634 90.1201 20.9766Z" fill="#592481"/>
<path d="M105.33 20.8327C105.33 15.28 109.503 10.8206 115.332 10.8206C120.422 10.8206 123.5 13.6688 123.5 18.0995C123.5 23.6522 119.416 28.1117 113.557 28.1117C108.437 28.1117 105.33 25.2346 105.33 20.8327ZM119.357 18.3872C119.357 16.1143 117.818 14.2443 115.066 14.2443C111.604 14.2443 109.444 17.3227 109.444 20.4587C109.444 22.7316 110.982 24.6017 113.764 24.6017C117.315 24.6304 119.357 21.552 119.357 18.3872Z" fill="#592481"/>
<path d="M126.725 11.2521H133.324C135.662 11.2521 138.266 12.1728 138.266 14.8485C138.266 17.0638 136.786 18.5023 134.656 19.049V19.1065C136.372 19.3942 137.674 20.6889 137.674 22.6165C137.674 25.9539 134.656 27.7089 130.454 27.7089H123.707L126.725 11.2521ZM130.395 24.5729C132.17 24.5729 133.738 24.0263 133.738 22.3288C133.738 21.2931 132.88 20.6601 131.341 20.6601H128.767L128.086 24.5729H130.395ZM131.756 17.8694C132.91 17.8694 134.389 17.409 134.389 15.8554C134.389 14.7621 133.413 14.3594 132.111 14.3594H129.951L129.329 17.8981H131.756V17.8694Z" fill="#592481"/>
<path d="M139.124 20.8327C139.124 15.28 143.296 10.8206 149.126 10.8206C154.216 10.8206 157.293 13.6688 157.293 18.0995C157.293 23.6522 153.21 28.1117 147.351 28.1117C142.231 28.1117 139.124 25.2346 139.124 20.8327ZM153.151 18.3872C153.151 16.1143 151.612 14.2443 148.86 14.2443C145.397 14.2443 143.237 17.3227 143.237 20.4587C143.237 22.7316 144.776 24.6017 147.558 24.6017C151.109 24.6304 153.151 21.552 153.151 18.3872Z" fill="#592481"/>
<path d="M40.3466 12.3454C40.3466 5.75697 34.8425 0.40564 28.066 0.40564C25.3435 0.40564 22.8282 1.26876 20.7864 2.73606C22.1476 2.24696 23.5976 1.98802 25.1068 1.98802C32.1201 1.98802 37.8017 7.54074 37.8017 14.3881C37.8017 17.3515 36.7364 20.0847 34.9609 22.2137C38.216 20.0559 40.3466 16.4308 40.3466 12.3454Z" fill="#592481"/>
<path d="M158.359 14.7621C158.359 13.1222 159.72 11.7988 161.436 11.7988C163.123 11.7988 164.514 13.1222 164.514 14.7621C164.514 16.4021 163.153 17.7543 161.436 17.7543C159.691 17.7255 158.359 16.4021 158.359 14.7621ZM163.685 14.7621C163.685 13.4387 162.738 12.5756 161.407 12.5756C160.075 12.5756 159.128 13.4387 159.128 14.7621C159.128 16.0856 160.075 16.9775 161.407 16.9775C162.709 16.9487 163.685 16.0856 163.685 14.7621ZM162.827 16.3157H162.028L161.318 14.9923H160.815V16.3157H160.134V13.2085H161.673C162.354 13.2085 162.768 13.4387 162.768 14.158C162.768 14.7046 162.443 14.9635 162.058 14.9923L162.827 16.3157ZM161.555 14.3881C161.88 14.3881 162.176 14.3881 162.176 14.0429C162.176 13.7552 161.88 13.7552 161.555 13.7552H160.815V14.3593H161.555V14.3881Z" fill="#592481"/>
<mask id="mask0_1266_427" style="mask-type:luminance" maskUnits="userSpaceOnUse" x="0" y="3" width="37" height="31">
<path d="M17.8569 32.2834C17.7682 32.3409 17.7386 32.4272 17.709 32.5135C17.709 32.5999 17.7386 32.6862 17.7978 32.7725C17.9161 32.9163 18.1529 32.9451 18.3304 32.83L29.8416 25.2346L33.2151 23.0193C34.1325 22.0123 34.5467 21.4369 35.1978 19.9696L17.8569 32.2834ZM11.761 32.5135C11.6723 32.5711 11.6427 32.6574 11.6131 32.7437C11.6131 32.83 11.6131 32.9451 11.7018 33.0026C11.8202 33.1753 12.0569 33.204 12.2345 33.0602L35.6712 18.2433C35.9967 17.2651 36.2631 15.9705 36.2927 14.906L11.761 32.5135ZM12.5008 27.9966C12.412 28.0541 12.3529 28.1692 12.3529 28.2843C12.3529 28.3994 12.3529 28.5144 12.4416 28.6007C12.5896 28.7734 12.8263 28.8021 13.0039 28.6583L36.2039 13.2948C36.1743 12.4029 36.0559 11.3959 35.6416 10.4465L12.5008 27.9966ZM0.545726 33.2328C0.368175 33.3767 0.338579 33.6068 0.486538 33.7795C0.575314 33.8658 0.664089 33.9233 0.782457 33.9233C0.900824 33.9233 1.01919 33.9233 1.10797 33.837L34.9018 9.26692C34.5467 8.23118 33.9253 7.31053 33.008 6.70635L0.545726 33.2328ZM0.427356 28.9748C0.249805 29.1186 0.220214 29.3488 0.368173 29.5214C0.456948 29.6077 0.545724 29.6653 0.664091 29.6653C0.782459 29.6653 0.900828 29.6365 0.989603 29.5789L31.8539 5.75692C30.9365 4.8938 30.1672 4.49101 29.0131 4.26085L0.427356 28.9748ZM24.5447 3.36896C23.6865 3.7142 3.5345 22.674 3.5345 22.674C3.38654 22.7891 3.35695 23.048 3.47532 23.1919C3.5345 23.2782 3.62327 23.307 3.74164 23.3357C3.83042 23.3357 3.94879 23.307 4.00797 23.2494L27.5335 3.85806C26.7345 3.54158 25.8172 3.36896 24.959 3.36896C24.8406 3.36896 24.6927 3.36896 24.5447 3.36896ZM18.5672 4.92257L15.608 7.65577L5.51715 16.9774C5.36919 17.0925 5.3396 17.3227 5.45797 17.4953C5.51715 17.5816 5.60593 17.6104 5.6947 17.6392C5.78348 17.6392 5.90184 17.6392 5.96103 17.5528L22.7692 3.36896C21.1416 3.62789 19.8988 4.03068 18.5672 4.92257Z" fill="white"/>
</mask>
<g mask="url(#mask0_1266_427)">
<path d="M-14.99 14.647L22.9468 -13.6057L51.5029 22.6453L13.5365 50.898L-14.99 14.647Z" fill="url(#paint0_linear_1266_427)"/>
</g>
</g>
<defs>
<linearGradient id="paint0_linear_1266_427" x1="-11.5158" y1="40.7917" x2="32.6094" y2="6.04292" gradientUnits="userSpaceOnUse">
<stop stop-color="#FAD0C4"/>
<stop offset="0.0269658" stop-color="#F9C8BC"/>
<stop offset="0.1548" stop-color="#F5A798"/>
<stop offset="0.2902" stop-color="#F18C7B"/>
<stop offset="0.4335" stop-color="#EE7764"/>
<stop offset="0.5884" stop-color="#ED6954"/>
<stop offset="0.7632" stop-color="#EB604B"/>
<stop offset="1" stop-color="#EB5D48"/>
</linearGradient>
<clipPath id="clip0_1266_427">
<rect width="165" height="47" fill="white"/>
</clipPath>
</defs>
</svg>
